<svg width="192" height="38" viewBox="0 0 192 38" fill="none" xmlns="http://www.w3.org/2000/svg">
<mask id="path-1-outside-1_18_835" maskUnits="userSpaceOnUse" x="-1.29275" y="-0.763608" width="194.27" height="39.7336" fill="black">
<rect fill="white" x="-1.29275" y="-0.763608" width="194.27" height="39.7336"/>
<path d="M5.11202 20.6293L2.42774 2.56665L6.08577 2.88669L7.83925 15.616L12.2542 3.42636L15.5058 3.71083L17.7135 16.4798L21.6503 4.24841L25.3083 4.56845L19.529 21.8907L15.9187 21.5748L13.4241 8.7807L8.72223 20.9452L5.11202 20.6293Z"/>
<path d="M29.3885 22.8737C29.0059 22.8402 28.5711 22.762 28.084 22.6391C27.5954 22.5321 27.1312 22.3309 26.6913 22.0354C26.2673 21.7414 25.9262 21.3261 25.6679 20.7895C25.427 20.2384 25.3463 19.5086 25.4258 18.6001L26.2895 8.72578C26.3578 7.94476 26.5345 7.30172 26.8196 6.79664C27.1047 6.29157 27.4597 5.90504 27.8847 5.63706C28.3097 5.36908 28.7668 5.19225 29.2562 5.10657C29.7455 5.02089 30.2213 4.99827 30.6835 5.03871C31.8789 5.1433 32.9295 5.25127 33.8353 5.36264C34.7569 5.4754 35.5823 5.58776 36.3113 5.69972C37.0417 5.79575 37.707 5.90213 38.3071 6.01888L38.0478 8.98356L31.449 8.40624C30.9549 8.36301 30.5619 8.44909 30.27 8.66447C29.9781 8.87985 29.8106 9.2346 29.7673 9.72871L29.5436 12.2869L36.5321 13.0911L36.2874 15.8884L29.2654 15.4668L29.0521 17.9055C29.0159 18.3199 29.051 18.6522 29.1576 18.9025C29.2816 19.1382 29.4509 19.3136 29.6657 19.4288C29.8978 19.5294 30.1414 19.5908 30.3964 19.6132L37.0669 20.1967L36.8076 23.1614C36.0993 23.1798 35.3127 23.1752 34.4478 23.1477C33.5989 23.1216 32.7347 23.0862 31.8553 23.0413C30.9918 22.9979 30.1695 22.942 29.3885 22.8737Z"/>
<path d="M45.5251 24.165L47.0727 6.47258L54.0301 7.08128C55.7834 7.23467 57.023 7.75268 57.7489 8.6353C58.492 9.50338 58.7988 10.6786 58.6691 12.1609C58.6078 12.8622 58.4498 13.4748 58.1952 13.9986C57.9579 14.5079 57.6407 14.9218 57.2434 15.2404C56.8475 15.543 56.389 15.7358 55.8678 15.8187C56.2419 15.9478 56.5953 16.1313 56.9278 16.3692C57.2763 16.6085 57.5787 16.916 57.8349 17.2917C58.1071 17.6689 58.3005 18.1195 58.4153 18.6435C58.5474 19.1529 58.5849 19.7344 58.5277 20.3879C58.4232 21.5833 58.1323 22.5216 57.6552 23.2026C57.1939 23.885 56.5509 24.3507 55.7261 24.5998C54.9186 24.8343 53.941 24.9013 52.7934 24.8009L45.5251 24.165ZM49.3418 21.2947L52.9759 21.6127C53.3903 21.6489 53.7559 21.6006 54.0727 21.4677C54.3895 21.3348 54.6422 21.108 54.8309 20.7872C55.0355 20.4678 55.1622 20.0292 55.211 19.4713C55.2514 19.0091 55.1979 18.6109 55.0505 18.2768C54.903 17.9427 54.6855 17.6747 54.398 17.4729C54.1105 17.2711 53.7675 17.1527 53.3691 17.1179L49.7349 16.7999L49.3418 21.2947ZM49.9733 14.0743L53.4162 14.3755C53.9262 14.4201 54.3408 14.2717 54.6597 13.9302C54.996 13.5742 55.1907 13.0933 55.2437 12.4876C55.3279 11.708 55.2159 11.1521 54.9077 10.82C54.5995 10.4879 54.2063 10.3009 53.7281 10.259L50.333 9.96202L49.9733 14.0743Z"/>
<path d="M67.1748 26.1796C66.2026 26.0945 65.301 25.9353 64.4702 25.702C63.6407 25.4528 62.9253 25.0931 62.324 24.6229C61.74 24.1381 61.3055 23.5059 61.0204 22.726C60.7526 21.9317 60.6702 20.9448 60.7734 19.7653L61.8232 7.76309L65.3617 8.07266L64.314 20.0509C64.2568 20.7044 64.339 21.2336 64.5606 21.6385C64.7981 22.0447 65.1562 22.3571 65.635 22.5757C66.1297 22.7956 66.7357 22.937 67.453 22.9997C68.1543 23.0611 68.7597 23.0257 69.2691 22.8936C69.7945 22.7629 70.2015 22.5174 70.4899 22.1572C70.7944 21.7984 70.9752 21.2922 71.0323 20.6387L72.0801 8.66044L75.6425 8.97211L74.5926 20.9743C74.4895 22.1538 74.2291 23.1107 73.8115 23.8451C73.3953 24.5636 72.8576 25.1108 72.1983 25.4868C71.5404 25.8468 70.7814 26.0775 69.9213 26.179C69.0786 26.2658 68.1631 26.266 67.1748 26.1796Z"/>
<path d="M81.1132 27.2786L81.5817 21.923L77.3291 9.11968L81.0111 9.4418L83.7384 18.4739L87.9685 10.0505L91.507 10.3601L85.1201 22.2326L84.6517 27.5882L81.1132 27.2786Z"/>
<path d="M101.788 29.0874L103.057 14.5748L98.204 14.1502L98.4822 10.9703L111.751 12.1312L111.473 15.3111L106.596 14.8844L105.327 29.397L101.788 29.0874Z"/>
<path d="M112.115 29.9908L113.662 12.2984L120.978 12.9385C121.679 12.9998 122.325 13.1447 122.916 13.373C123.507 13.5854 124.016 13.919 124.442 14.3738C124.868 14.8287 125.177 15.4339 125.368 16.1894C125.574 16.9463 125.628 17.8986 125.527 19.0462C125.456 19.8591 125.316 20.5455 125.106 21.1053C124.897 21.6652 124.64 22.1166 124.337 22.4595C124.05 22.8038 123.73 23.0728 123.375 23.2667C123.021 23.4606 122.662 23.6139 122.299 23.7267L124.977 31.1162L121.367 30.8003L119.095 24.0004C118.904 23.9837 118.681 23.9642 118.426 23.9419C118.188 23.905 117.942 23.8754 117.687 23.8531C117.432 23.8308 117.177 23.8085 116.921 23.7862C116.666 23.7639 116.436 23.7357 116.23 23.7016L115.653 30.3004L112.115 29.9908ZM116.475 20.9043L119.631 21.1804C119.95 21.2083 120.24 21.1936 120.502 21.1362C120.764 21.0788 120.999 20.9628 121.207 20.7883C121.416 20.5978 121.584 20.3394 121.708 20.013C121.849 19.6881 121.943 19.2626 121.989 18.7366C122.032 18.2425 122.012 17.8312 121.928 17.5026C121.862 17.1595 121.741 16.892 121.565 16.6999C121.39 16.4919 121.178 16.3449 120.929 16.2588C120.681 16.1568 120.397 16.0918 120.078 16.0639L116.922 15.7878L116.475 20.9043Z"/>
<path d="M125.98 31.204L133.075 13.9968L137.546 14.3879L141.545 32.5657L137.863 32.2435L137.064 28.4394L131.039 27.9123L129.615 31.5219L125.98 31.204ZM132.153 24.8056L136.505 25.1863L135.009 17.2256L132.153 24.8056Z"/>
<path d="M143.004 32.6934L144.198 19.0415C144.267 18.2605 144.443 17.6174 144.729 17.1123C145.014 16.6073 145.369 16.2207 145.794 15.9528C146.219 15.6848 146.676 15.5079 147.165 15.4223C147.654 15.3366 148.13 15.314 148.592 15.3544C149.166 15.4046 149.875 15.4746 150.718 15.5645C151.579 15.6398 152.485 15.7432 153.438 15.8747C154.406 16.0075 155.332 16.1609 156.216 16.3346L155.957 19.2993L149.286 18.7157C148.792 18.6724 148.406 18.7751 148.127 19.0238C147.866 19.2579 147.716 19.5901 147.678 20.0205L147.415 23.033L154.403 23.8371L154.159 26.6345L147.137 26.2129L146.543 33.0029L143.004 32.6934Z"/>
<path d="M156.71 33.8924L157.904 20.2406C157.972 19.4595 158.149 18.8165 158.434 18.3114C158.719 17.8063 159.074 17.4198 159.499 17.1518C159.924 16.8838 160.381 16.707 160.871 16.6213C161.36 16.5357 161.836 16.513 162.298 16.5535C162.872 16.6037 163.58 16.6737 164.424 16.7636C165.284 16.8389 166.191 16.9423 167.143 17.0737C168.111 17.2066 169.037 17.3599 169.922 17.5337L169.662 20.4983L162.992 19.9147C162.498 19.8715 162.111 19.9742 161.832 20.2229C161.571 20.457 161.422 20.7892 161.384 21.2196L161.12 24.2321L168.109 25.0362L167.864 27.8335L160.842 27.4119L160.248 34.202L156.71 33.8924Z"/>
<path d="M170.649 35.1119L172.196 17.4195L175.735 17.7291L174.187 35.4215L170.649 35.1119Z"/>
<path d="M183.197 36.3543C182.161 36.2637 181.255 36.0639 180.479 35.7551C179.719 35.4477 179.088 34.9508 178.586 34.2644C178.099 33.5795 177.764 32.6347 177.581 31.4301C177.414 30.2109 177.414 28.653 177.58 26.7562C177.74 24.9232 178.015 23.4375 178.404 22.299C178.81 21.146 179.319 20.2752 179.933 19.6864C180.548 19.0817 181.265 18.6867 182.084 18.5014C182.904 18.3161 183.815 18.2674 184.82 18.3552C185.617 18.425 186.354 18.5376 187.031 18.6932C187.725 18.8343 188.345 18.993 188.892 19.1693C189.44 19.3297 189.899 19.4983 190.269 19.6752L190.029 22.4247C189.747 22.3359 189.363 22.238 188.874 22.131C188.401 22.0254 187.856 21.9294 187.237 21.8432C186.619 21.741 185.968 21.6599 185.283 21.5999C184.613 21.5414 184.032 21.5709 183.54 21.6884C183.066 21.7914 182.667 22.0376 182.343 22.4269C182.038 22.8017 181.779 23.3653 181.569 24.1179C181.375 24.8718 181.224 25.8624 181.116 27.0897C181.013 28.2692 180.984 29.2464 181.029 30.0212C181.089 30.7975 181.236 31.4126 181.47 31.8667C181.704 32.3048 182.045 32.6317 182.492 32.8475C182.956 33.0487 183.547 33.1807 184.264 33.2435C185.476 33.3495 186.458 33.4113 187.211 33.429C187.98 33.4482 188.599 33.4461 189.067 33.4227L188.828 36.1483C188.386 36.2541 187.88 36.3384 187.313 36.4012C186.746 36.448 186.126 36.466 185.453 36.4553C184.778 36.4605 184.026 36.4268 183.197 36.3543Z"/>
</mask>
<path d="M5.11202 20.6293L2.42774 2.56665L6.08577 2.88669L7.83925 15.616L12.2542 3.42636L15.5058 3.71083L17.7135 16.4798L21.6503 4.24841L25.3083 4.56845L19.529 21.8907L15.9187 21.5748L13.4241 8.7807L8.72223 20.9452L5.11202 20.6293Z" stroke="white" stroke-width="3" mask="url(#path-1-outside-1_18_835)"/>
<path d="M29.3885 22.8737C29.0059 22.8402 28.5711 22.762 28.084 22.6391C27.5954 22.5321 27.1312 22.3309 26.6913 22.0354C26.2673 21.7414 25.9262 21.3261 25.6679 20.7895C25.427 20.2384 25.3463 19.5086 25.4258 18.6001L26.2895 8.72578C26.3578 7.94476 26.5345 7.30172 26.8196 6.79664C27.1047 6.29157 27.4597 5.90504 27.8847 5.63706C28.3097 5.36908 28.7668 5.19225 29.2562 5.10657C29.7455 5.02089 30.2213 4.99827 30.6835 5.03871C31.8789 5.1433 32.9295 5.25127 33.8353 5.36264C34.7569 5.4754 35.5823 5.58776 36.3113 5.69972C37.0417 5.79575 37.707 5.90213 38.3071 6.01888L38.0478 8.98356L31.449 8.40624C30.9549 8.36301 30.5619 8.44909 30.27 8.66447C29.9781 8.87985 29.8106 9.2346 29.7673 9.72871L29.5436 12.2869L36.5321 13.0911L36.2874 15.8884L29.2654 15.4668L29.0521 17.9055C29.0159 18.3199 29.051 18.6522 29.1576 18.9025C29.2816 19.1382 29.4509 19.3136 29.6657 19.4288C29.8978 19.5294 30.1414 19.5908 30.3964 19.6132L37.0669 20.1967L36.8076 23.1614C36.0993 23.1798 35.3127 23.1752 34.4478 23.1477C33.5989 23.1216 32.7347 23.0862 31.8553 23.0413C30.9918 22.9979 30.1695 22.942 29.3885 22.8737Z" stroke="white" stroke-width="3" mask="url(#path-1-outside-1_18_835)"/>
<path d="M45.5251 24.165L47.0727 6.47258L54.0301 7.08128C55.7834 7.23467 57.023 7.75268 57.7489 8.6353C58.492 9.50338 58.7988 10.6786 58.6691 12.1609C58.6078 12.8622 58.4498 13.4748 58.1952 13.9986C57.9579 14.5079 57.6407 14.9218 57.2434 15.2404C56.8475 15.543 56.389 15.7358 55.8678 15.8187C56.2419 15.9478 56.5953 16.1313 56.9278 16.3692C57.2763 16.6085 57.5787 16.916 57.8349 17.2917C58.1071 17.6689 58.3005 18.1195 58.4153 18.6435C58.5474 19.1529 58.5849 19.7344 58.5277 20.3879C58.4232 21.5833 58.1323 22.5216 57.6552 23.2026C57.1939 23.885 56.5509 24.3507 55.7261 24.5998C54.9186 24.8343 53.941 24.9013 52.7934 24.8009L45.5251 24.165ZM49.3418 21.2947L52.9759 21.6127C53.3903 21.6489 53.7559 21.6006 54.0727 21.4677C54.3895 21.3348 54.6422 21.108 54.8309 20.7872C55.0355 20.4678 55.1622 20.0292 55.211 19.4713C55.2514 19.0091 55.1979 18.6109 55.0505 18.2768C54.903 17.9427 54.6855 17.6747 54.398 17.4729C54.1105 17.2711 53.7675 17.1527 53.3691 17.1179L49.7349 16.7999L49.3418 21.2947ZM49.9733 14.0743L53.4162 14.3755C53.9262 14.4201 54.3408 14.2717 54.6597 13.9302C54.996 13.5742 55.1907 13.0933 55.2437 12.4876C55.3279 11.708 55.2159 11.1521 54.9077 10.82C54.5995 10.4879 54.2063 10.3009 53.7281 10.259L50.333 9.96202L49.9733 14.0743Z" stroke="white" stroke-width="3" mask="url(#path-1-outside-1_18_835)"/>
<path d="M67.1748 26.1796C66.2026 26.0945 65.301 25.9353 64.4702 25.702C63.6407 25.4528 62.9253 25.0931 62.324 24.6229C61.74 24.1381 61.3055 23.5059 61.0204 22.726C60.7526 21.9317 60.6702 20.9448 60.7734 19.7653L61.8232 7.76309L65.3617 8.07266L64.314 20.0509C64.2568 20.7044 64.339 21.2336 64.5606 21.6385C64.7981 22.0447 65.1562 22.3571 65.635 22.5757C66.1297 22.7956 66.7357 22.937 67.453 22.9997C68.1543 23.0611 68.7597 23.0257 69.2691 22.8936C69.7945 22.7629 70.2015 22.5174 70.4899 22.1572C70.7944 21.7984 70.9752 21.2922 71.0323 20.6387L72.0801 8.66044L75.6425 8.97211L74.5926 20.9743C74.4895 22.1538 74.2291 23.1107 73.8115 23.8451C73.3953 24.5636 72.8576 25.1108 72.1983 25.4868C71.5404 25.8468 70.7814 26.0775 69.9213 26.179C69.0786 26.2658 68.1631 26.266 67.1748 26.1796Z" stroke="white" stroke-width="3" mask="url(#path-1-outside-1_18_835)"/>
<path d="M81.1132 27.2786L81.5817 21.923L77.3291 9.11968L81.0111 9.4418L83.7384 18.4739L87.9685 10.0505L91.507 10.3601L85.1201 22.2326L84.6517 27.5882L81.1132 27.2786Z" stroke="white" stroke-width="3" mask="url(#path-1-outside-1_18_835)"/>
<path d="M101.788 29.0874L103.057 14.5748L98.204 14.1502L98.4822 10.9703L111.751 12.1312L111.473 15.3111L106.596 14.8844L105.327 29.397L101.788 29.0874Z" stroke="white" stroke-width="3" mask="url(#path-1-outside-1_18_835)"/>
<path d="M112.115 29.9908L113.662 12.2984L120.978 12.9385C121.679 12.9998 122.325 13.1447 122.916 13.373C123.507 13.5854 124.016 13.919 124.442 14.3738C124.868 14.8287 125.177 15.4339 125.368 16.1894C125.574 16.9463 125.628 17.8986 125.527 19.0462C125.456 19.8591 125.316 20.5455 125.106 21.1053C124.897 21.6652 124.64 22.1166 124.337 22.4595C124.05 22.8038 123.73 23.0728 123.375 23.2667C123.021 23.4606 122.662 23.6139 122.299 23.7267L124.977 31.1162L121.367 30.8003L119.095 24.0004C118.904 23.9837 118.681 23.9642 118.426 23.9419C118.188 23.905 117.942 23.8754 117.687 23.8531C117.432 23.8308 117.177 23.8085 116.921 23.7862C116.666 23.7639 116.436 23.7357 116.23 23.7016L115.653 30.3004L112.115 29.9908ZM116.475 20.9043L119.631 21.1804C119.95 21.2083 120.24 21.1936 120.502 21.1362C120.764 21.0788 120.999 20.9628 121.207 20.7883C121.416 20.5978 121.584 20.3394 121.708 20.013C121.849 19.6881 121.943 19.2626 121.989 18.7366C122.032 18.2425 122.012 17.8312 121.928 17.5026C121.862 17.1595 121.741 16.892 121.565 16.6999C121.39 16.4919 121.178 16.3449 120.929 16.2588C120.681 16.1568 120.397 16.0918 120.078 16.0639L116.922 15.7878L116.475 20.9043Z" stroke="white" stroke-width="3" mask="url(#path-1-outside-1_18_835)"/>
<path d="M125.98 31.204L133.075 13.9968L137.546 14.3879L141.545 32.5657L137.863 32.2435L137.064 28.4394L131.039 27.9123L129.615 31.5219L125.98 31.204ZM132.153 24.8056L136.505 25.1863L135.009 17.2256L132.153 24.8056Z" stroke="white" stroke-width="3" mask="url(#path-1-outside-1_18_835)"/>
<path d="M143.004 32.6934L144.198 19.0415C144.267 18.2605 144.443 17.6174 144.729 17.1123C145.014 16.6073 145.369 16.2207 145.794 15.9528C146.219 15.6848 146.676 15.5079 147.165 15.4223C147.654 15.3366 148.13 15.314 148.592 15.3544C149.166 15.4046 149.875 15.4746 150.718 15.5645C151.579 15.6398 152.485 15.7432 153.438 15.8747C154.406 16.0075 155.332 16.1609 156.216 16.3346L155.957 19.2993L149.286 18.7157C148.792 18.6724 148.406 18.7751 148.127 19.0238C147.866 19.2579 147.716 19.5901 147.678 20.0205L147.415 23.033L154.403 23.8371L154.159 26.6345L147.137 26.2129L146.543 33.0029L143.004 32.6934Z" stroke="white" stroke-width="3" mask="url(#path-1-outside-1_18_835)"/>
<path d="M156.71 33.8924L157.904 20.2406C157.972 19.4595 158.149 18.8165 158.434 18.3114C158.719 17.8063 159.074 17.4198 159.499 17.1518C159.924 16.8838 160.381 16.707 160.871 16.6213C161.36 16.5357 161.836 16.513 162.298 16.5535C162.872 16.6037 163.58 16.6737 164.424 16.7636C165.284 16.8389 166.191 16.9423 167.143 17.0737C168.111 17.2066 169.037 17.3599 169.922 17.5337L169.662 20.4983L162.992 19.9147C162.498 19.8715 162.111 19.9742 161.832 20.2229C161.571 20.457 161.422 20.7892 161.384 21.2196L161.12 24.2321L168.109 25.0362L167.864 27.8335L160.842 27.4119L160.248 34.202L156.71 33.8924Z" stroke="white" stroke-width="3" mask="url(#path-1-outside-1_18_835)"/>
<path d="M170.649 35.1119L172.196 17.4195L175.735 17.7291L174.187 35.4215L170.649 35.1119Z" stroke="white" stroke-width="3" mask="url(#path-1-outside-1_18_835)"/>
<path d="M183.197 36.3543C182.161 36.2637 181.255 36.0639 180.479 35.7551C179.719 35.4477 179.088 34.9508 178.586 34.2644C178.099 33.5795 177.764 32.6347 177.581 31.4301C177.414 30.2109 177.414 28.653 177.58 26.7562C177.74 24.9232 178.015 23.4375 178.404 22.299C178.81 21.146 179.319 20.2752 179.933 19.6864C180.548 19.0817 181.265 18.6867 182.084 18.5014C182.904 18.3161 183.815 18.2674 184.82 18.3552C185.617 18.425 186.354 18.5376 187.031 18.6932C187.725 18.8343 188.345 18.993 188.892 19.1693C189.44 19.3297 189.899 19.4983 190.269 19.6752L190.029 22.4247C189.747 22.3359 189.363 22.238 188.874 22.131C188.401 22.0254 187.856 21.9294 187.237 21.8432C186.619 21.741 185.968 21.6599 185.283 21.5999C184.613 21.5414 184.032 21.5709 183.54 21.6884C183.066 21.7914 182.667 22.0376 182.343 22.4269C182.038 22.8017 181.779 23.3653 181.569 24.1179C181.375 24.8718 181.224 25.8624 181.116 27.0897C181.013 28.2692 180.984 29.2464 181.029 30.0212C181.089 30.7975 181.236 31.4126 181.47 31.8667C181.704 32.3048 182.045 32.6317 182.492 32.8475C182.956 33.0487 183.547 33.1807 184.264 33.2435C185.476 33.3495 186.458 33.4113 187.211 33.429C187.98 33.4482 188.599 33.4461 189.067 33.4227L188.828 36.1483C188.386 36.2541 187.88 36.3384 187.313 36.4012C186.746 36.448 186.126 36.466 185.453 36.4553C184.778 36.4605 184.026 36.4268 183.197 36.3543Z" stroke="white" stroke-width="3" mask="url(#path-1-outside-1_18_835)"/>
</svg>
