<svg width="190" height="35" viewBox="0 0 190 35" fill="none" xmlns="http://www.w3.org/2000/svg">
<path d="M4.42807 18.2286L1.74379 0.165906L5.40182 0.485942L7.1553 13.2152L11.5703 1.02561L14.8218 1.31009L17.0296 14.0791L20.9664 1.84766L24.6244 2.1677L18.845 19.4899L15.2348 19.1741L12.7401 6.37995L8.03828 18.5444L4.42807 18.2286ZM28.7045 20.473C28.322 20.4395 27.8872 20.3613 27.4 20.2384C26.9115 20.1314 26.4472 19.9302 26.0073 19.6347C25.5833 19.3406 25.2422 18.9253 24.984 18.3888C24.7431 17.8377 24.6624 17.1079 24.7418 16.1993L25.6056 6.32503C25.6739 5.54402 25.8506 4.90097 26.1357 4.39589C26.4208 3.89082 26.7758 3.50429 27.2008 3.23631C27.6257 2.96833 28.0829 2.7915 28.5722 2.70582C29.0615 2.62014 29.5373 2.59752 29.9995 2.63796C31.195 2.74255 32.2456 2.85053 33.1513 2.96189C34.073 3.07465 34.8983 3.18701 35.6274 3.29898C36.3578 3.395 37.023 3.50139 37.6231 3.61813L37.3638 6.58281L30.765 6.00549C30.2709 5.96226 29.8779 6.04834 29.586 6.26372C29.2942 6.4791 29.1266 6.83385 29.0834 7.32796L28.8596 9.88619L35.8481 10.6903L35.6035 13.4877L28.5815 13.0661L28.3682 15.5047C28.3319 15.9192 28.3671 16.2515 28.4737 16.5017C28.5976 16.7374 28.767 16.9129 28.9818 17.028C29.2139 17.1286 29.4575 17.1901 29.7125 17.2124L36.383 17.796L36.1237 20.7607C35.4154 20.779 34.6288 20.7744 33.7639 20.747C32.9149 20.7209 32.0507 20.6854 31.1713 20.6406C30.3078 20.5972 29.4855 20.5413 28.7045 20.473ZM44.8412 21.7643L46.3888 4.07183L53.3462 4.68053C55.0995 4.83392 56.3391 5.35193 57.0649 6.23455C57.8081 7.10263 58.1149 8.27784 57.9852 9.76018C57.9239 10.4615 57.7659 11.0741 57.5113 11.5979C57.274 12.1071 56.9567 12.521 56.5594 12.8396C56.1636 13.1423 55.705 13.3351 55.1838 13.4179C55.558 13.547 55.9113 13.7305 56.2439 13.9684C56.5924 14.2077 56.8947 14.5152 57.1509 14.891C57.4231 15.2681 57.6166 15.7187 57.7314 16.2427C57.8635 16.7522 57.9009 17.3337 57.8438 17.9872C57.7392 19.1826 57.4484 20.1208 56.9712 20.8018C56.51 21.4842 55.867 21.9499 55.0421 22.199C54.2346 22.4335 53.2571 22.5006 52.1094 22.4002L44.8412 21.7643ZM48.6578 18.894L52.2919 19.2119C52.7064 19.2482 53.072 19.1999 53.3887 19.067C53.7055 18.9341 53.9583 18.7073 54.1469 18.3865C54.3515 18.0671 54.4782 17.6285 54.527 17.0706C54.5675 16.6084 54.514 16.2102 54.3665 15.8761C54.2191 15.5419 54.0016 15.274 53.7141 15.0721C53.4266 14.8703 53.0836 14.752 52.6851 14.7171L49.051 14.3992L48.6578 18.894ZM49.2894 11.6736L52.7322 11.9748C53.2423 12.0194 53.6568 11.871 53.9758 11.5295C54.3121 11.1734 54.5067 10.6926 54.5597 10.0869C54.644 9.30725 54.532 8.75137 54.2237 8.41924C53.9155 8.08711 53.5223 7.90013 53.0441 7.8583L49.6491 7.56127L49.2894 11.6736ZM66.4909 23.7788C65.5186 23.6938 64.617 23.5346 63.7862 23.3013C62.9568 23.0521 62.2414 22.6923 61.6401 22.2221C61.0561 21.7374 60.6215 21.1051 60.3364 20.3253C60.0686 19.5309 59.9863 18.544 60.0895 17.3645L61.1393 5.36234L64.6778 5.67192L63.63 17.6502C63.5729 18.3037 63.6551 18.8329 63.8766 19.2377C64.1141 19.644 64.4723 19.9564 64.9511 20.1749C65.4458 20.3949 66.0518 20.5362 66.769 20.599C67.4703 20.6603 68.0757 20.625 68.5852 20.4929C69.1106 20.3622 69.5175 20.1167 69.806 19.7565C70.1104 19.3976 70.2912 18.8915 70.3484 18.238L71.3961 6.25969L74.9585 6.57136L73.9087 18.5735C73.8055 19.753 73.5451 20.71 73.1275 21.4444C72.7114 22.1628 72.1736 22.7101 71.5144 23.086C70.8565 23.4461 70.0975 23.6768 69.2374 23.7782C68.3946 23.8651 67.4791 23.8653 66.4909 23.7788ZM80.4293 24.8778L80.8977 19.5223L76.6452 6.71893L80.3271 7.04106L83.0545 16.0731L87.2845 7.64975L90.823 7.95933L84.4362 19.8319L83.9677 25.1874L80.4293 24.8778ZM101.104 26.6866L102.374 12.1741L97.5201 11.7494L97.7982 8.56958L111.068 9.73049L110.789 12.9103L105.912 12.4836L104.643 26.9962L101.104 26.6866ZM111.431 27.5901L112.978 9.89765L120.294 10.5377C120.996 10.5991 121.641 10.7439 122.232 10.9722C122.823 11.1846 123.332 11.5182 123.758 11.9731C124.184 12.428 124.493 13.0331 124.684 13.7887C124.89 14.5456 124.944 15.4978 124.843 16.6454C124.772 17.4583 124.632 18.1447 124.422 18.7046C124.213 19.2644 123.956 19.7158 123.653 20.0587C123.366 20.403 123.046 20.6721 122.691 20.866C122.337 21.0598 121.978 21.2131 121.615 21.3259L124.293 28.7155L120.683 28.3996L118.411 21.5997C118.22 21.583 117.997 21.5634 117.742 21.5411C117.504 21.5043 117.258 21.4747 117.003 21.4524C116.748 21.4301 116.493 21.4078 116.238 21.3854C115.983 21.3631 115.752 21.3349 115.546 21.3009L114.969 27.8997L111.431 27.5901ZM115.791 18.5036L118.947 18.7797C119.266 18.8076 119.556 18.7928 119.818 18.7354C120.08 18.678 120.315 18.5621 120.523 18.3875C120.732 18.1971 120.9 17.9387 121.025 17.6123C121.165 17.2873 121.259 16.8619 121.305 16.3359C121.348 15.8418 121.328 15.4304 121.244 15.1019C121.178 14.7588 121.057 14.4912 120.881 14.2992C120.706 14.0911 120.494 13.9441 120.245 13.858C119.997 13.756 119.713 13.6911 119.394 13.6632L116.238 13.3871L115.791 18.5036ZM125.296 28.8032L132.391 11.596L136.862 11.9872L140.861 30.1649L137.179 29.8428L136.38 26.0386L130.355 25.5115L128.931 29.1212L125.296 28.8032ZM131.47 22.4049L135.821 22.7856L134.325 14.8249L131.47 22.4049ZM142.32 30.2926L143.515 16.6407C143.583 15.8597 143.76 15.2167 144.045 14.7116C144.33 14.2065 144.685 13.82 145.11 13.552C145.535 13.284 145.992 13.1072 146.481 13.0215C146.971 12.9358 147.446 12.9132 147.909 12.9537C148.482 13.0039 149.191 13.0739 150.034 13.1637C150.895 13.239 151.801 13.3424 152.754 13.4739C153.722 13.6068 154.648 13.7601 155.532 13.9338L155.273 16.8985L148.602 16.3149C148.108 16.2717 147.722 16.3744 147.443 16.6231C147.182 16.8572 147.032 17.1894 146.994 17.6198L146.731 20.6323L153.719 21.4364L153.475 24.2337L146.453 23.8121L145.859 30.6022L142.32 30.2926ZM156.026 31.4917L157.22 17.8398C157.288 17.0588 157.465 16.4157 157.75 15.9107C158.035 15.4056 158.39 15.0191 158.815 14.7511C159.24 14.4831 159.697 14.3063 160.187 14.2206C160.676 14.1349 161.152 14.1123 161.614 14.1527C162.188 14.2029 162.896 14.273 163.74 14.3628C164.6 14.4381 165.507 14.5415 166.459 14.673C167.427 14.8059 168.353 14.9592 169.238 15.1329L168.978 18.0976L162.308 17.514C161.814 17.4708 161.427 17.5735 161.148 17.8221C160.887 18.0562 160.738 18.3885 160.7 18.8188L160.436 21.8313L167.425 22.6355L167.18 25.4328L160.158 25.0112L159.564 31.8013L156.026 31.4917ZM169.965 32.7112L171.512 15.0187L175.051 15.3283L173.503 33.0208L169.965 32.7112ZM182.513 33.9536C181.477 33.8629 180.571 33.6632 179.795 33.3544C179.035 33.047 178.404 32.5501 177.902 31.8637C177.416 31.1787 177.081 30.2339 176.897 29.0293C176.73 27.8102 176.73 26.2522 176.896 24.3555C177.056 22.5225 177.331 21.0368 177.72 19.8983C178.126 18.7453 178.635 17.8744 179.249 17.2857C179.864 16.681 180.581 16.286 181.401 16.1007C182.22 15.9154 183.131 15.8666 184.136 15.9545C184.933 16.0242 185.67 16.1369 186.347 16.2925C187.041 16.4335 187.662 16.5922 188.208 16.7685C188.756 16.9289 189.215 17.0976 189.585 17.2745L189.345 20.024C189.064 19.9351 188.679 19.8372 188.19 19.7302C187.717 19.6246 187.172 19.5287 186.553 19.4424C185.935 19.3402 185.284 19.2592 184.599 19.1992C183.929 19.1406 183.348 19.1701 182.856 19.2877C182.382 19.3907 181.983 19.6368 181.659 20.0262C181.354 20.4009 181.096 20.9646 180.885 21.7171C180.691 22.471 180.54 23.4617 180.432 24.689C180.329 25.8685 180.3 26.8456 180.345 27.6205C180.405 28.3967 180.552 29.0119 180.786 29.4659C181.02 29.904 181.361 30.231 181.808 30.4468C182.272 30.648 182.863 30.78 183.58 30.8427C184.792 30.9487 185.774 31.0106 186.527 31.0283C187.297 31.0474 187.915 31.0453 188.383 31.022L188.144 33.7476C187.702 33.8534 187.196 33.9377 186.629 34.0004C186.062 34.0473 185.443 34.0653 184.769 34.0546C184.094 34.0597 183.342 34.0261 182.513 33.9536Z" fill="white"/>
</svg>
